<svg viewBox="0 0 240 60" xmlns="http://www.w3.org/2000/svg">
  <path fill="#FF0000" d="M0 0h23v60L0 0z"/>
  <path fill="#FF0000" d="M27 0h23l-23 60V0z"/>
  <path fill="#FF0000" d="M50 60l-12-30h9l5 15 5-15h9L50 60z"/>
  <path fill="#FF0000" d="M78 45h8l4 10h9L83 15h-10L57 55h9l4-10zm4-7l4-12 4 12h-8z"/>
  <path fill="#FF0000" d="M116 55V15h10c12 0 18 8 18 20s-6 20-18 20h-10zm10-8c6 0 9-5 9-12s-3-12-9-12h-2v24h2z"/>
  <path fill="#FF0000" d="M149 35c0-12 8-21 19-21s19 9 19 21-8 21-19 21-19-9-19-21zm29 0c0-8-4-13-10-13s-10 5-10 13 4 13 10 13 10-5 10-13z"/>
  <path fill="#FF0000" d="M193 15h10c12 0 18 6 18 14 0 5-3 10-8 12l10 14h-11l-8-12h-2v12h-9V15zm10 20c5 0 8-3 8-7s-3-6-8-6h-2v13h2z"/>
  <path fill="#FF0000" d="M227 35c0-12 8-21 19-21 6 0 11 3 14 7l-6 5c-2-3-5-4-8-4-6 0-10 5-10 13s4 13 10 13c4 0 7-2 9-5l6 5c-3 5-9 8-15 8-11 0-19-9-19-21z"/>
</svg>