<svg xmlns="http://www.w3.org/2000/svg" viewBox="0 0 603 182" fill="#FF9900"><path d="M374.1 142.3c-34.5 25.5-84.6 39.1-127.7 39.1-60.4 0-114.8-22.3-156-59.5-3.2-2.9-.3-6.9 3.6-4.6 44.4 25.8 99.4 41.4 156.2 41.4 38.3 0 80.4-7.9 119.2-24.4 5.8-2.5 10.7 3.8 4.7 8z"/><path d="M385.2 129.5c-4.4-5.7-29.3-2.7-40.5-1.4-3.4.4-3.9-2.5-.9-4.7 19.8-13.9 52.3-9.9 56.1-5.2 3.8 4.7-1 37.3-19.6 52.9-2.9 2.4-5.6 1.1-4.3-2.1 4.2-10.5 13.6-33.8 9.2-39.5z"/><path fill="#232F3E" d="M345.5 21.5V6.8c0-2.2 1.7-3.7 3.7-3.7h65.6c2.1 0 3.8 1.5 3.8 3.7V19c0 2.1-1.8 4.8-4.9 9l-34 48.5c12.6-.3 25.9 1.6 37.4 8 2.6 1.5 3.3 3.6 3.5 5.7v15.7c0 2.2-2.4 4.7-4.9 3.4-20.4-10.7-47.5-11.9-70.1.1-2.3 1.2-4.7-1.2-4.7-3.4V91c0-2.4 0-6.5 2.4-10.1l39.4-56.5h-34.3c-2.1 0-3.8-1.5-3.9-3.7v-.2zM114.8 107.4H94.5c-1.9-.1-3.4-1.5-3.6-3.4V6.9c0-2 1.7-3.7 3.8-3.7h18.9c2 .1 3.5 1.6 3.6 3.5v12.7h.4c4.8-12.5 13.9-18.3 26.1-18.3 12.4 0 20.2 5.8 25.8 18.3 4.8-12.5 15.7-18.3 27.4-18.3 8.3 0 17.4 3.4 23 11.1 6.3 8.6 5 21.1 5 32v59c0 2-1.7 3.7-3.8 3.7h-20.2c-2-.1-3.6-1.7-3.6-3.7V56.6c0-4.3.4-15-.5-19.1-1.5-6.9-5.8-8.8-11.4-8.8-4.7 0-9.6 3.1-11.6 8.1-2 5-1.8 13.4-1.8 19.8v47.2c0 2-1.7 3.7-3.8 3.7h-20.2c-2-.1-3.6-1.7-3.6-3.7l-.1-47.1c0-11.4 1.9-28.2-12-28.2-14 0-13.4 16.4-13.4 28.2v47.2c-.1 2-1.8 3.5-3.9 3.5zm321.7-78c0 8.2.2 15-3.9 22.3-3.4 5.9-8.7 9.5-14.7 9.5-8.2 0-12.9-6.2-12.9-15.4 0-18.1 16.2-21.4 31.5-21.4v5zm21.4 51.6c-1.4 1.2-3.4 1.3-5 .5-7-5.8-8.3-8.5-12.1-14.1-11.6 11.8-19.8 15.4-34.8 15.4-17.8 0-31.6-11-31.6-33 0-17.2 9.3-28.9 22.6-34.6 11.5-5 27.6-5.9 39.9-7.3v-2.7c0-5-.4-10.9-2.5-15.2-1.9-3.9-6.9-7.7-13.8-7.7-9.4 0-17.7 4.8-19.8 14.8-.4 2.2-2.1 4.4-4.3 4.5l-19.6-2.1c-2-.5-4.3-2.1-3.7-5.3C381 6.1 404.7 0 425.9 0c10.8 0 24.9 2.9 33.5 11.1 10.8 10.1 9.8 23.6 9.8 38.3v34.7c0 10.4 4.3 15 8.4 20.6 1.4 2 1.7 4.4-.1 5.9-4.5 3.8-12.5 10.8-16.9 14.7l-.1-.3zM231.6 107.4H211c-2-.1-3.6-1.7-3.6-3.7l.1-96.8c.1-2 1.8-3.6 3.8-3.6h19.1c1.8.1 3.2 1.4 3.5 3v14.8h.4c5.5-13.6 13.2-20 26.8-20 8.6 0 17 3.1 22.4 11.7 5 8 5 21.4 5 31.2v60c-.2 1.9-1.9 3.4-3.8 3.4h-20.4c-1.9-.1-3.4-1.6-3.5-3.4V56c0-11 1.3-27.1-12.2-27.1-4.7 0-9.1 3.2-11.3 8-2.7 6.1-3.1 12.2-3.1 19.1v47.6c0 2-1.8 3.8-3.9 3.8h.3zM71.5 59.4c0 6.4.2 11.7-3.1 17.4-2.6 4.6-6.8 7.4-11.5 7.4-6.4 0-10.1-4.9-10.1-12.1 0-14.2 12.7-16.7 24.7-16.7v4zm16.7 40.3c-1.1 1-2.7 1-3.9.4-5.5-4.6-6.5-6.6-9.5-11-9.1 9.3-15.5 12-27.3 12-13.9 0-24.8-8.6-24.8-25.8 0-13.5 7.3-22.6 17.7-27.1 9-3.9 21.6-4.6 31.3-5.7v-2.1c0-3.9.3-8.5-2-11.9-2-3-5.8-4.3-9.2-4.3-6.3 0-11.9 3.2-13.2 9.8-.3 1.5-1.4 3-2.9 3.1L29.8 35c-1.3-.3-2.8-1.4-2.4-3.5C31.9 9.1 52.1 2.1 70 2.1c9.2 0 21.3 2.5 28.6 9.5 9.2 8.8 8.3 20.6 8.3 33.5v30.3c0 9.1 3.8 13.1 7.3 18 1.2 1.8 1.5 3.9-.1 5.2-3.9 3.3-10.9 9.4-14.8 12.8l-.1-.2z"/></svg>