<svg viewBox="0 0 170 170" xmlns="http://www.w3.org/2000/svg">
  <path fill="#000000" d="M150.37 130.25c-2.45 5.66-5.35 10.87-8.71 15.66-4.58 6.53-8.33 11.05-11.22 13.56-4.48 4.12-9.28 6.23-14.42 6.35-3.69 0-8.14-1.05-13.32-3.18-5.2-2.12-9.97-3.17-14.34-3.17-4.58 0-9.49 1.05-14.75 3.17-5.26 2.13-9.5 3.24-12.74 3.35-4.93.21-9.84-1.96-14.74-6.52-3.13-2.73-7.05-7.41-11.77-14.04-5.05-7.08-9.2-15.29-12.45-24.65-3.47-10.11-5.21-19.91-5.21-29.41 0-10.87 2.35-20.24 7.06-28.09 3.7-6.32 8.63-11.31 14.81-14.98 6.17-3.67 12.85-5.54 20.02-5.66 3.91 0 9.05 1.22 15.43 3.61 6.36 2.41 10.45 3.63 12.26 3.63 1.35 0 5.93-1.42 13.7-4.26 7.35-2.64 13.55-3.73 18.64-3.29 13.78 1.11 24.12 6.54 31 16.33-12.32 7.47-18.43 17.93-18.32 31.37.1 10.46 3.9 19.17 11.39 26.06 3.39 3.22 7.17 5.7 11.38 7.45-.91 2.65-1.88 5.18-2.9 7.62zM119.04 7.63c0 8.2-2.99 15.86-8.94 22.95-7.17 8.51-15.84 13.43-25.25 12.66-.12-.97-.19-2-.19-3.07 0-7.88 3.43-16.32 9.52-23.21 3.04-3.48 6.91-6.38 11.61-8.69 4.68-2.27 9.1-3.53 13.27-3.76.12 1.05.18 2.1.18 3.12h-.2z"/>
</svg>