<svg xmlns="http://www.w3.org/2000/svg" viewBox="0 0 170 170" fill="#000000"><path d="M150.4 130.3c-2.4 5.7-5.2 10.9-8.5 15.6-4.5 6.4-8.1 10.9-11 13.4-4.4 4.1-9.1 6.2-14.1 6.3-3.6 0-8-1-13-3.1s-9.6-3.1-13.8-3.1c-4.5 0-9.3 1-14.5 3.1-5.2 2.1-9.4 3.2-12.6 3.3-4.8.2-9.6-2-14.4-6.5-3.1-2.7-7-7.3-11.6-13.8-5-6.9-9.1-14.9-12.3-24-3.4-9.8-5.1-19.4-5.1-28.6 0-10.6 2.3-19.7 6.8-27.4 3.6-6.1 8.3-11 14.3-14.5 6-3.5 12.5-5.3 19.5-5.4 3.8 0 8.8 1.2 15 3.5 6.2 2.4 10.2 3.6 12 3.6 1.3 0 5.8-1.4 13.2-4.2 7.1-2.6 13-3.6 17.8-3.2 13.2 1.1 23.1 6.3 29.6 15.6-11.8 7.2-17.6 17.2-17.4 30.1.2 10.1 3.8 18.4 10.6 25.1 3.2 3 6.7 5.4 10.6 7-.8 2.5-1.7 4.9-2.7 7.2zM119.3 7.6c0 7.9-2.9 15.2-8.6 22-6.9 8.1-15.2 12.7-24.2 12-0.1-1-.2-2-.2-3 0-7.6 3.3-15.7 9.1-22.3 2.9-3.4 6.6-6.2 11.1-8.4 4.5-2.2 8.7-3.4 12.7-3.6.2 1.1.1 2.2.1 3.3z"/></svg>