<svg viewBox="0 0 500 160" xmlns="http://www.w3.org/2000/svg">
  <path fill="#F40009" d="M105.2 100.4c-11.5 10.8-27.3 16.2-47.3 16.2-19.5 0-35.5-5.8-48-17.4C3.3 92.8 0 84.4 0 74.5c0-15.2 5.6-27.8 16.7-37.8 11.2-10 25.4-15 42.8-15 17.2 0 31.3 5 42.3 14.9 11 9.9 16.6 22.5 16.6 37.9 0 10.4-4.4 19.2-13.2 25.9zM59.5 37.1c-11.2 0-20.2 3.5-27.1 10.4-6.9 6.9-10.3 15.8-10.3 26.5 0 10.5 3.4 19.2 10.1 26.1 6.8 6.9 15.7 10.4 26.8 10.4 11.4 0 20.6-3.5 27.5-10.4 6.9-6.9 10.4-15.8 10.4-26.5 0-10.5-3.4-19.2-10.1-26.1-6.8-6.9-15.9-10.4-27.3-10.4z"/>
  <path fill="#F40009" d="M203.8 93.7c-5.9 15.3-21.3 23-46.1 23-16.6 0-29.8-4.7-39.4-14.2-9.7-9.5-14.5-22.3-14.5-38.4 0-16.3 5.1-29.3 15.2-39.1 10.2-9.7 23.8-14.6 40.9-14.6 18.9 0 33.5 5.8 43.8 17.5l-18.8 13.8c-6.9-8.3-15.9-12.4-27-12.4-10.2 0-18.3 3.1-24.4 9.4-6.1 6.3-9.1 14.8-9.1 25.7 0 10.7 3 19.2 8.9 25.4 5.9 6.2 14 9.3 24.1 9.3 13.4 0 22.9-5.5 28.4-16.5l18 11.1z"/>
  <path fill="#F40009" d="M277.8 100.4c-11.5 10.8-27.3 16.2-47.3 16.2-19.5 0-35.5-5.8-48-17.4-6.6-6.4-9.9-14.8-9.9-24.7 0-15.2 5.6-27.8 16.7-37.8 11.2-10 25.4-15 42.8-15 17.2 0 31.3 5 42.3 14.9 11 9.9 16.6 22.5 16.6 37.9 0 10.4-4.4 19.2-13.2 25.9zm-45.7-63.3c-11.2 0-20.2 3.5-27.1 10.4-6.9 6.9-10.3 15.8-10.3 26.5 0 10.5 3.4 19.2 10.1 26.1 6.8 6.9 15.7 10.4 26.8 10.4 11.4 0 20.6-3.5 27.5-10.4 6.9-6.9 10.4-15.8 10.4-26.5 0-10.5-3.4-19.2-10.1-26.1-6.8-6.9-15.9-10.4-27.3-10.4z"/>
  <path fill="#F40009" d="M341.7 116.6c-16.8 0-29.4-4.3-37.8-13l16.5-14.5c5.7 6.2 13.3 9.3 22.8 9.3 9.1 0 15.9-3.1 20.3-9.3l17.4 12.4c-9.6 10.1-23.3 15.1-39.2 15.1zM284.3 64c0-15.8 5.2-28.5 15.6-38.1 10.4-9.6 24.2-14.4 41.3-14.4 17.5 0 31.2 4.8 41.3 14.4 10.1 9.6 15.1 22.3 15.1 38.1v-1.5c0-1 0-2-.1-3h-90.3c1.4 6.7 4.6 12 9.5 16 4.9 4 11.1 6 18.5 6 10.6 0 18.8-4 24.6-12l17.4 12.4C368 105.2 354.7 113 338.9 113c-17.1 0-30.8-4.8-41.1-14.4-10.3-9.6-15.5-22.3-15.5-38.1v3.5z"/>
  <path fill="#F40009" d="M418 15.4V0h24.5v15.4h10.8v19.1h-10.8v42.2c0 4.9 1 8.3 3.1 10.3 2 2 5.3 3 9.7 3 1.3 0 2.8-.1 4.5-.2v19c-4 .6-8.1.9-12.3.9-10.8 0-18.5-2.4-23.1-7.2-4.6-4.8-6.9-12.3-6.9-22.5V34.5H408V15.4h10z"/>
  <path fill="#F40009" d="M500 93.7c-5.9 15.3-21.3 23-46.1 23-16.6 0-29.8-4.7-39.4-14.2-9.7-9.5-14.5-22.3-14.5-38.4 0-16.3 5.1-29.3 15.2-39.1 10.2-9.7 23.8-14.6 40.9-14.6 18.9 0 33.5 5.8 43.8 17.5l-18.8 13.8c-6.9-8.3-15.9-12.4-27-12.4-10.2 0-18.3 3.1-24.4 9.4-6.1 6.3-9.1 14.8-9.1 25.7 0 10.7 3 19.2 8.9 25.4 5.9 6.2 14 9.3 24.1 9.3 13.4 0 22.9-5.5 28.4-16.5l18 11.1z"/>
</svg>