<svg viewBox="0 0 200 70" xmlns="http://www.w3.org/2000/svg" fill="#F40009"><path d="M28.3 50.5c-5.2 0-9.4-2.1-12.4-6.2-2.7-3.7-4-8.5-4-14.3 0-5.7 1.4-10.5 4-14.2 3-4.1 7.2-6.2 12.4-6.2 4.3 0 7.9 1.5 10.8 4.4l-4.5 5.2c-1.7-1.9-3.7-2.8-6.1-2.8-2.8 0-5 1.2-6.6 3.5-1.4 2.1-2.1 5-2.1 8.6 0 3.7.7 6.6 2.2 8.7 1.6 2.3 3.8 3.4 6.5 3.4 2.5 0 4.6-1 6.3-3l4.5 5.1c-3 3.2-6.7 4.8-11 4.8zm35.8-.7c-5.8 0-10.4-1.9-13.6-5.6-2.9-3.4-4.3-7.9-4.3-13.5 0-5.5 1.5-10 4.4-13.5 3.3-3.9 7.8-5.8 13.5-5.8 5.8 0 10.3 1.9 13.5 5.8 2.9 3.5 4.4 8 4.4 13.5 0 5.5-1.5 10-4.4 13.5-3.2 3.7-7.7 5.6-13.5 5.6zm0-31.6c-2.8 0-4.9 1.1-6.4 3.3-1.4 2-2 4.7-2 8.2 0 3.5.7 6.3 2.1 8.3 1.5 2.2 3.6 3.3 6.3 3.3 2.8 0 4.9-1.1 6.4-3.3 1.4-2 2-4.7 2-8.3 0-3.5-.7-6.2-2-8.2-1.5-2.2-3.6-3.3-6.4-3.3zm37.9 31.6c-5.2 0-9.4-2-12.4-6-2.7-3.6-4-8.4-4-14.4 0-5.8 1.4-10.6 4-14.3 3-4 7.2-6.1 12.4-6.1 3.5 0 6.6 1 9.2 3.1V3h7.8v46.4h-7.8v-2.8c-2.5 2.4-5.6 3.5-9.2 3.5v-.3zm1.6-34c-2.7 0-4.8 1.1-6.3 3.4-1.4 2.1-2.1 5-2.1 8.6 0 3.6.7 6.5 2.1 8.6 1.5 2.3 3.6 3.4 6.3 3.4 2.4 0 4.4-.8 6-2.4V18.6c-1.6-1.6-3.6-2.4-6-2.4v-.2zm25.8 33.3V10.4h7.8v39h-7.8zm36.7.7c-5.8 0-10.4-1.9-13.6-5.6-2.9-3.4-4.3-7.9-4.3-13.5 0-5.5 1.5-10 4.4-13.5 3.3-3.9 7.8-5.8 13.5-5.8 5.8 0 10.3 1.9 13.5 5.8 2.9 3.5 4.4 8 4.4 13.5 0 5.5-1.5 10-4.4 13.5-3.2 3.7-7.7 5.6-13.5 5.6zm0-31.6c-2.8 0-4.9 1.1-6.4 3.3-1.4 2-2 4.7-2 8.2 0 3.5.7 6.3 2.1 8.3 1.5 2.2 3.6 3.3 6.3 3.3 2.8 0 4.9-1.1 6.4-3.3 1.4-2 2-4.7 2-8.3 0-3.5-.7-6.2-2-8.2-1.5-2.2-3.6-3.3-6.4-3.3z"/></svg>