<svg xmlns="http://www.w3.org/2000/svg" viewBox="0 0 512 150" fill="#F40009"><path d="M45.9 75c0-28.5 20.4-50.3 50-50.3 17.1 0 30.5 7.2 39.4 18.8l-15.8 13.2c-5.8-7.7-13.8-12.2-23.6-12.2-18.3 0-29.7 14.4-29.7 30.5s11.4 30.5 29.7 30.5c9.8 0 17.8-4.5 23.6-12.2l15.8 13.2c-8.9 11.6-22.3 18.8-39.4 18.8-29.6 0-50-21.8-50-50.3zm115.3-48.5c17.7 0 31.5 9.3 31.5 30.5 0 21.2-13.8 30.5-31.5 30.5-17.7 0-31.5-9.3-31.5-30.5 0-21.2 13.8-30.5 31.5-30.5zm0 45.8c8.5 0 12.5-5.8 12.5-15.3s-4-15.3-12.5-15.3-12.5 5.8-12.5 15.3 4 15.3 12.5 15.3zm55.8-18c0-18 11.5-27.8 28.8-27.8 9.2 0 16.7 3.5 21.5 9.5l-10.8 11.8c-2.8-3.7-6.5-5.8-10.7-5.8-7.5 0-11.8 5.2-11.8 12.3s4.3 12.3 11.8 12.3c4.2 0 7.9-2.1 10.7-5.8l10.8 11.8c-4.8 6-12.3 9.5-21.5 9.5-17.3 0-28.8-9.8-28.8-27.8zm85.3 26.2v-1.7c-2.8 1.5-6.5 2.3-10.3 2.3-14.3 0-24.5-9.8-24.5-26.8s10.2-26.8 24.5-26.8c3.8 0 7.5.8 10.3 2.3v-1.7h17v52.4h-17zm0-37.2c-2.2-1.7-5.3-2.8-8.5-2.8-7.8 0-12 5-12 13s4.2 13 12 13c3.2 0 6.3-1.1 8.5-2.8v-20.4zm35.2 37.8c-10.7 0-17-6-17-17.7V44.7h17.5v33.5c0 5.5 2.5 8.2 7.2 8.2 2.2 0 4.3-.7 6-1.8V44.7h17.5v52.4h-17.5v-2.3c-3.8 2.3-8.5 3.5-13.7 3.5zm58.3.6c-17.7 0-31.5-9.3-31.5-30.5 0-21.2 13.8-30.5 31.5-30.5 17.7 0 31.5 9.3 31.5 30.5 0 21.2-13.8 30.5-31.5 30.5zm0-45.2c-8.5 0-12.5 5.8-12.5 15.3s4 15.3 12.5 15.3 12.5-5.8 12.5-15.3-4-15.3-12.5-15.3z"/></svg>