<svg xmlns="http://www.w3.org/2000/svg" viewBox="0 0 1000 400" fill="#1F70C1"><path d="M0 0h410v40H0zm0 80h410v40H0zm120 80h170v40H120zm0 80h170v40H120zm-120 80h410v40H0zm0 80h410v40H0zM460 0h180c88.4 0 160 71.6 160 160v80c0 88.4-71.6 160-160 160H460V0zm180 360c66.3 0 120-53.7 120-120v-80c0-66.3-53.7-120-120-120H500v320h140zM460 80h180c44.2 0 80 35.8 80 80v80c0 44.2-35.8 80-80 80H460V80zm180 200c22.1 0 40-17.9 40-40v-80c0-22.1-17.9-40-40-40H500v160h140zM855 0h145v40H895v120h105v40H895v120h105v40H855v-40h-55v-40h55V160h-55v-40h55V40h-55V0h55zm0 80h105v40H855z"/></svg>