<svg xmlns="http://www.w3.org/2000/svg" viewBox="0 0 512 512" fill="#0866FF"><path d="M480 257.35c0-41.51-7.31-71.59-21.93-90.26-15.55-19.87-39.89-29.96-72.36-29.96-31.77 0-56.32 13.32-74.15 40.25-6.69 10.11-12.16 21.53-16.42 34.29-4.26-12.76-9.73-24.18-16.42-34.29C260.89 150.45 236.34 137.13 204.57 137.13c-32.47 0-56.81 10.09-72.36 29.96C117.59 185.76 110.28 215.84 110.28 257.35v.81c0 41.51 7.31 71.59 21.93 90.26 15.55 19.87 39.89 29.96 72.36 29.96 31.77 0 56.32-13.32 74.15-40.25 6.69-10.11 12.16-21.53 16.42-34.29 4.26 12.76 9.73 24.18 16.42 34.29 17.83 26.93 42.38 40.25 74.15 40.25 32.47 0 56.81-10.09 72.36-29.96 14.62-18.67 21.93-48.75 21.93-90.26v-.81zM204.57 336.76c-27.92 0-41.87-26.47-41.87-79.41s13.95-79.41 41.87-79.41c27.92 0 41.87 26.47 41.87 79.41s-13.95 79.41-41.87 79.41zm178.14 0c-27.92 0-41.87-26.47-41.87-79.41s13.95-79.41 41.87-79.41c27.92 0 41.87 26.47 41.87 79.41s-13.95 79.41-41.87 79.41z"/></svg>