<svg viewBox="0 0 80 16" xmlns="http://www.w3.org/2000/svg" fill="#0866FF"><path d="M6.17 4.63c-2.17 0-3.52 1.9-4.35 3.34C.91 6.18 0 3.15 0 1.28c0-.56.15-1 .54-1.13C1 0 1.84.4 2.86 1.33c.87.78 2.12 2.51 3.32 3.3h-.01zM21.8 15.85c-1.3 0-2.58-.53-3.63-1.73-.9-1-1.58-2.46-2.32-4.45-.82-2.21-1.42-4.44-2.53-5.88-.86-1.1-1.85-1.54-3.16-1.54-.93 0-1.73.26-2.32.72-.64.5-1.06 1.22-1.31 2.14-.12.43-.19.92-.19 1.47 0 1.56.58 4.04 1.41 6.26.38 1.03.86 1.93 1.47 2.69.7.87 1.55 1.47 2.58 1.76.45.13.92.19 1.4.19 1.75 0 3.33-.87 4.75-2.09a18.5 18.5 0 0 0 2.11-2.3c.3.75.66 1.44 1.09 2.04.87 1.22 1.97 1.97 3.31 2.26.32.07.64.1.97.1 1.88 0 3.55-1.08 4.95-2.56a21.19 21.19 0 0 0 2.26-3c.09.16.18.32.28.47.87 1.35 2.01 2.32 3.47 2.82.56.2 1.16.29 1.78.29 1.4 0 2.74-.5 4.02-1.43a12.34 12.34 0 0 0 3.1-3.38c.37-.55.7-1.13 1-1.72v4.91h4.66V7.76c0-1.84-.4-3.32-1.3-4.43-.97-1.18-2.38-1.79-4.26-1.79-1.18 0-2.24.28-3.17.81a7.8 7.8 0 0 0-2.4 2.23V1.92h-4.66v3.36a8.26 8.26 0 0 0-2.35-2.68c-1.22-.92-2.64-1.36-4.3-1.36-1.68 0-3.08.55-4.24 1.58a8.1 8.1 0 0 0-1.74 2.16 7.77 7.77 0 0 0-2.2-2.42c-1.09-.79-2.36-1.22-3.85-1.3l-.33-.01c-2.24 0-3.94.83-5.13 2.35-.33.42-.6.88-.83 1.37V1.92H0v13.93h4.66V9.48c0-.32.02-.63.07-.92.25-1.54.87-2.72 1.82-3.53.7-.6 1.51-.89 2.43-.89.81 0 1.47.25 2.02.76.61.58 1.02 1.44 1.32 2.6.36 1.38.91 3.38 1.85 5.32.75 1.55 1.66 2.75 2.8 3.61 1.04.77 2.18 1.18 3.45 1.38.36.05.73.08 1.1.08.07-.04.18-.04.28-.04zm22.43-4.9c-.26 1.24-.73 2.27-1.42 3.08-.62.73-1.32 1.1-2.12 1.1-.33 0-.63-.08-.89-.22-.5-.26-.9-.72-1.18-1.34-.34-.76-.57-1.76-.67-3a18.68 18.68 0 0 1 .07-3.53c.16-1.16.45-2.12.85-2.88.46-.86 1.06-1.36 1.82-1.5.15-.03.3-.04.46-.04.67 0 1.25.25 1.75.73.54.52.96 1.27 1.24 2.23.28.94.42 2.05.42 3.33 0 .73-.1 1.43-.33 2.04zm-9.52 1.2c.16.51.35.99.58 1.44.78 1.54 1.88 2.65 3.28 3.36.85.43 1.79.66 2.8.66.05 0 .1-.01.15-.01.78-.02 1.51-.18 2.19-.46 1.27-.53 2.34-1.48 3.19-2.77.09-.14.18-.29.26-.44v3.07h4.66V7.76c0-1.04-.14-1.97-.42-2.8-.3-.9-.76-1.65-1.37-2.27-.6-.6-1.33-1.05-2.16-1.35a7.79 7.79 0 0 0-2.6-.42c-1.15 0-2.2.23-3.14.67-1.09.5-2 1.25-2.72 2.19v-2.4h-4.66v9.24c-.05-.13-.1-.26-.16-.39-.7-1.6-1.6-2.95-2.65-3.95a7.09 7.09 0 0 0-1.25-.98V1.92h-4.66v3.36a8.26 8.26 0 0 0-2.35-2.68c-1.22-.92-2.64-1.36-4.3-1.36-1.68 0-3.08.55-4.24 1.58a8.1 8.1 0 0 0-1.74 2.16 7.77 7.77 0 0 0-2.2-2.42c-1.09-.79-2.36-1.22-3.85-1.3l-.33-.01c-2.24 0-3.94.83-5.13 2.35-.33.42-.6.88-.83 1.37V1.92H0v13.93h4.66V9.48c0-.32.02-.63.07-.92.25-1.54.87-2.72 1.82-3.53.7-.6 1.51-.89 2.43-.89.81 0 1.47.25 2.02.76.61.58 1.02 1.44 1.32 2.6.36 1.38.91 3.38 1.85 5.32.75 1.55 1.66 2.75 2.8 3.61 1.04.77 2.18 1.18 3.45 1.38.36.05.73.08 1.1.08h.28c1.3 0 2.58-.53 3.63-1.73.9-1 1.58-2.46 2.32-4.45.27-.73.5-1.48.72-2.24.02-.08.05-.16.07-.24.4 1.26.96 2.51 1.67 3.62z"/></svg>