<svg xmlns="http://www.w3.org/2000/svg" viewBox="0 0 351 64" fill="#76B900"><path d="M145.7 13.8h9.4v36.4h-9.4V13.8zm-43.4 0l14.6 24.1V13.8h8.9v36.4h-10.4l-14.1-23.1v23.1h-8.9V13.8h9.9zm96.7 0l-12.3 36.4h-9.4l-12.3-36.4h10l7.1 23.7 7.2-23.7h9.7zm11.1 0h9.4v36.4h-9.4V13.8zm48.3 27.1h-17.1c.4 3.2 2.9 5 6.3 5 2.8 0 4.9-1.1 6.5-3.4l6.8 4c-2.8 4.4-7.4 6.8-13.4 6.8-10.2 0-16.2-6.5-16.2-15.3 0-8.8 6.1-15.3 15.5-15.3 9.1 0 14.7 6.3 14.7 15.3 0 1-.1 2-.3 2.9h-.8zm-9-5.6c-.3-3.5-2.6-5.5-5.8-5.5-3.4 0-5.7 2-6.3 5.5h12.1zm49.5-12.4l-8.9 3.2c-1.2-2.5-3.5-4-6.6-4-3.7 0-6.1 2.8-6.1 6.4v8.9c0 3.6 2.4 6.4 6.1 6.4 3.1 0 5.4-1.5 6.6-4l8.9 3.2c-2.3 5.8-7.7 9.3-15.5 9.3-10.5 0-16.2-6.5-16.2-14.9v-8.9c0-8.4 5.7-14.9 16.2-14.9 7.8 0 13.2 3.5 15.5 9.3zm19.6-9.3c10.6 0 16.4 6.3 16.4 14.3v8.9c0 8-5.8 14.3-16.4 14.3h-13.7V13.6h13.7zm0 28.3c4.3 0 6.9-2.6 6.9-6.4v-6.9c0-3.8-2.6-6.4-6.9-6.4h-4.1v19.7h4.1zM57.2 0v10.4c-1.9-.2-3.9-.4-6-.4-14.7 0-26.5 11.7-27.4 26.2h-.1v27.7H13.3V36.5C13.3 16.8 30.6.7 52.3 0h4.9zm8.1 10v8.1c-2.2-.6-4.4-.9-6.6-1-9.9 0-18.1 6.3-21.2 15h-.1V64H27.1V36.5C27.1 20.9 41.1 8.1 59 8.1c2.2 0 4.2.2 6.3.6v1.3zm0 15.9v8.8c-1.8-1.2-4-1.9-6.4-1.9-6.5 0-11.9 5.2-12.4 11.8h-.1V64H36.1V45.2c0-10.4 9.8-19.3 22.8-19.3 2.2 0 4.3.3 6.4 1v-.1z"/></svg>