<svg viewBox="0 0 200 40" xmlns="http://www.w3.org/2000/svg" fill="#76B900"><path d="M55.4 6.1h5.3v20.6h12.8v4.6H55.4V6.1zM141.3 6.1h5.3v25.2h-5.3V6.1zM107.7 6.1l9.8 25.2h-5.6l-2-5.5H99.4l-2 5.5h-5.5l9.9-25.2h5.9zm-1.2 15.6l-3.5-10-3.6 10h7.1zM78.3 6.1h6.5l7.8 17.5V6.1h5.2v25.2h-6l-8.2-18.2v18.2h-5.3V6.1zM153.3 6.1h6.5l7.8 17.5V6.1h5.2v25.2h-6l-8.2-18.2v18.2h-5.3V6.1zM119.7 6.1h7.6c8.4 0 12.5 5.6 12.5 12.6 0 7-4.1 12.6-12.5 12.6h-7.6V6.1zm5.3 20.8h2c5.1 0 7.4-3.5 7.4-8.2s-2.3-8.2-7.4-8.2h-2v16.4zM176.8 6.1h5.3l8.3 25.2h-5.5l-1.6-5.2h-8l-1.6 5.2h-5.4l8.5-25.2zm2.6 5.7l-2.8 10h5.6l-2.8-10zM44.8 27.2c-.7 0-1.2.2-1.7.5-.5.3-.8.8-1 1.4h5.3c-.2-.5-.5-1-1-1.3-.4-.4-1-.6-1.6-.6zm4.6 4.3h-7.4c.1.7.4 1.3.9 1.7.5.4 1.1.6 1.8.6.9 0 1.7-.4 2.3-1.1l1.9 1.9c-.5.6-1.1 1-1.8 1.3-.7.3-1.5.4-2.4.4-1 0-1.8-.2-2.5-.5s-1.4-.9-1.9-1.5c-.5-.6-.9-1.4-1.2-2.2-.3-.8-.4-1.7-.4-2.7 0-.9.1-1.8.4-2.6.3-.8.7-1.5 1.2-2.2.5-.6 1.2-1.1 1.9-1.5.7-.4 1.6-.5 2.5-.5 1 0 1.8.2 2.5.5.7.4 1.4.9 1.8 1.5.5.6.8 1.4 1.1 2.2.2.8.3 1.7.3 2.6v1.1l.1.5zM22.7 23.5h3.5v12.2h-3.5V23.5zM8.4 35.7V23.5h3.4v4.2c.4-.5.9-.8 1.4-1.1.5-.3 1.1-.4 1.9-.4.7 0 1.4.1 1.9.4.5.3 1 .6 1.4 1.1l.3.3v-.1-4.4h3.5v12.2h-3.5v-1c-.1.1-.2.2-.3.3-.4.4-.9.7-1.4 1-.6.3-1.2.4-2 .4-.7 0-1.4-.1-1.9-.4-.6-.3-1-.6-1.4-1.1v1.1l-3.3-.3zm7.2-2.2c.3-.1.6-.3.9-.6.2-.2.4-.5.5-.9.1-.3.2-.7.2-1.1 0-.4-.1-.8-.2-1.1-.1-.3-.3-.6-.5-.8-.2-.2-.5-.4-.9-.6-.3-.1-.7-.2-1.2-.2-.4 0-.8.1-1.1.2-.3.1-.6.3-.9.6-.2.2-.4.5-.5.8-.1.3-.2.7-.2 1.1 0 .4.1.8.2 1.1.1.3.3.7.5.9.2.3.5.5.9.6.3.2.7.2 1.1.2.5 0 .9-.1 1.2-.2zM26.3 26.4h3.4v9.3h-3.4v-9.3zM0 23.5h4.2l2.2 7.3 2.2-7.3h4.2L8.4 35.7H4.2L0 23.5z"/><path d="M55.3 0v4.6c-.8-.1-1.6-.1-2.3-.1-6.4 0-11.3 4.9-11.7 11.2v.1 11.8h-4.8v-5.7-10c0-6.7 6-12.4 14.3-12.5h.1 4.4v.6z"/><path d="M58.9 4.3v3.5c-1-.3-1.9-.4-2.8-.4-4.2 0-7.7 2.7-9 6.4-.1.1-.1.2-.1.3v13.6h-3.9V16c0-6.5 6.1-11.7 14.1-11.7h1.7z"/><path d="M62.5 11v3.8c-.8-.5-1.7-.8-2.7-.8-2.8 0-5.1 2.2-5.3 5v.2 8.6h-3.9v-8 .1c0-4.4 4.2-8.2 9.7-8.2 1 0 1.8.1 2.5.3l-.3-1z"/></svg>