<svg viewBox="0 0 351 144" xmlns="http://www.w3.org/2000/svg">
  <path fill="#76B900" d="M0 65.5v32.2c39.8-4.2 68-38.5 68-75.2V0C27.8 6.8 0 32.8 0 65.5z"/>
  <path fill="#76B900" d="M68 22.5v21.8c-24.2 3-43.5 24.2-43.5 49.8v14.5c0 3.5 2.8 6.3 6.3 6.3h31c3.5 0 6.2-2.8 6.2-6.3V94.2c0-25.6 19.3-46.8 43.5-49.8V22.5C85.5 25.5 68 22.5 68 22.5z"/>
  <path fill="#000" d="M141 55h22l26 54 26-54h22v89h-20V82l-22 45h-12l-22-45v62h-20z"/>
  <path fill="#000" d="M257 55h20v89h-20z"/>
  <path fill="#000" d="M295 55h37c25 0 41 16 41 44.5S357 144 332 144h-37V55zm36 72c14 0 22-9 22-27.5S345 72 331 72h-16v55h16z"/>
  <path fill="#000" d="M391 55h20v89h-20z"/>
  <path fill="#000" d="M436 55h22l37 89h-22l-7-18h-38l-7 18h-22l37-89zm6 55h24l-12-31-12 31z"/>
</svg>