<svg viewBox="0 0 48 48" xmlns="http://www.w3.org/2000/svg">
  <path fill="#00f2ea" d="M38.4 21.7V16c-2.6 0-5-0.8-7-2.2-2-1.4-3.4-3.3-4.2-5.6h-5.5v26.1c0 3.1-2.5 5.6-5.6 5.6s-5.6-2.5-5.6-5.6 2.5-5.6 5.6-5.6c0.6 0 1.2 0.1 1.7 0.3v-5.7c-0.6-0.1-1.1-0.1-1.7-0.1-6.2 0-11.3 5.1-11.3 11.3S9.9 45.8 16.1 45.8s11.3-5.1 11.3-11.3V23.6c2.6 1.9 5.8 3 9.2 3h1.8v-4.9z"/>
  <path fill="#ff004f" d="M40.4 19.7v-5.5c-2.6 0-5-0.8-7-2.2-2-1.4-3.4-3.3-4.2-5.6h-5.5v26.1c0 3.1-2.5 5.6-5.6 5.6s-5.6-2.5-5.6-5.6 2.5-5.6 5.6-5.6c0.6 0 1.2 0.1 1.7 0.3v-5.7c-0.6-0.1-1.1-0.1-1.7-0.1-6.2 0-11.3 5.1-11.3 11.3s5.1 11.3 11.3 11.3 11.3-5.1 11.3-11.3V21.6c2.6 1.9 5.8 3 9.2 3h1.8v-4.9z"/>
  <path fill="#000" d="M39.4 20.7v-5.5c-2.6 0-5-0.8-7-2.2-2-1.4-3.4-3.3-4.2-5.6h-5.5v26.1c0 3.1-2.5 5.6-5.6 5.6s-5.6-2.5-5.6-5.6 2.5-5.6 5.6-5.6c0.6 0 1.2 0.1 1.7 0.3v-5.7c-0.6-0.1-1.1-0.1-1.7-0.1-6.2 0-11.3 5.1-11.3 11.3s5.1 11.3 11.3 11.3 11.3-5.1 11.3-11.3V22.6c2.6 1.9 5.8 3 9.2 3h1.8v-4.9z"/>
</svg>